<svg version="1.1" id="Layer_1" xmlns="http://www.w3.org/2000/svg" xmlns:xlink="http://www.w3.org/1999/xlink" x="0px" y="0px"
	 width="100%" viewBox="0 0 1024 1024" enable-background="new 0 0 1024 1024" xml:space="preserve">
<path fill="#000000" opacity="1.000000" stroke="none" 
	d="
M188.794647,472.244568 
	C212.198288,469.102783 228.248917,483.001282 228.204681,506.033203 
	C228.189682,513.842041 228.275436,521.656372 227.516632,529.461182 
	C227.216949,532.543579 226.435333,533.766235 223.034088,533.653503 
	C205.255707,533.064148 187.469971,532.616943 169.683411,532.408875 
	C165.306137,532.357666 163.367386,531.297729 163.589859,526.515381 
	C164.067886,516.239624 163.318970,505.863892 165.668121,495.749237 
	C168.515442,483.489563 176.201935,475.688629 188.794647,472.244568 
M217.686584,497.003174 
	C213.598328,486.241394 205.819458,481.323883 194.023743,482.044525 
	C183.457306,482.690094 176.688126,488.762329 174.074142,499.760101 
	C172.704758,505.521423 173.677338,511.380981 173.093430,517.152222 
	C172.661026,521.425842 174.442978,522.647156 178.420395,522.664978 
	C190.732422,522.720154 203.044189,522.982422 215.353867,523.261414 
	C217.377335,523.307251 218.693604,522.825806 218.652542,520.640869 
	C218.509415,513.021851 219.952316,505.347839 217.686584,497.003174 
z"/>
<path fill="#000000" opacity="1.000000" stroke="none" 
	d="
M827.000000,487.705872 
	C837.311462,487.754761 847.122925,487.835938 856.934387,487.831879 
	C859.783997,487.830688 862.173767,488.507843 861.851135,491.870422 
	C860.804077,502.782227 862.662964,513.866150 860.282959,524.653381 
	C856.708008,540.857239 843.301086,550.580444 827.034302,549.231201 
	C810.665466,547.873413 798.447021,535.266113 797.821533,518.641541 
	C797.490356,509.840729 797.856628,501.015686 797.745422,492.203613 
	C797.701538,488.721313 799.193115,487.531799 802.553894,487.597473 
	C810.533569,487.753418 818.517700,487.684021 827.000000,487.705872 
M811.269897,530.174194 
	C817.671326,538.838379 826.544678,540.427673 836.223145,538.099548 
	C845.691345,535.822083 850.317810,528.879272 852.022095,519.573059 
	C853.114258,513.609680 852.445435,507.635864 852.693237,501.671814 
	C852.822754,498.554535 850.822815,498.290558 848.441406,498.248871 
	C835.813049,498.027985 823.170898,498.490997 810.557251,497.482880 
	C808.645813,497.330139 806.556274,497.500214 806.532227,500.025452 
	C806.436157,510.088837 804.918396,520.388000 811.269897,530.174194 
z"/>
<path fill="#000000" opacity="1.000000" stroke="none" 
	d="
M236.516083,610.317017 
	C229.227982,619.788757 216.546646,623.784912 206.495682,620.024231 
	C196.286896,616.204468 190.170547,606.565552 190.701355,595.316833 
	C190.837311,592.436096 191.875519,589.819885 192.904541,586.408508 
	C186.299637,588.165833 180.052200,589.567627 173.988739,591.536072 
	C170.152252,592.781494 168.946640,591.179504 168.008041,587.947937 
	C167.027985,584.573669 167.775253,582.829895 171.404282,581.870911 
	C189.892120,576.985474 208.321976,571.881042 226.782837,566.892883 
	C229.286240,566.216553 231.952194,565.004883 233.058914,569.078247 
	C233.987091,572.494446 234.624832,575.432678 229.126022,576.089844 
	C234.669449,580.476929 238.223099,585.363953 239.645950,591.787231 
	C241.098907,598.346313 240.031479,604.308289 236.516083,610.317017 
M228.956711,587.687256 
	C228.152084,586.636658 227.462875,585.467102 226.523346,584.555542 
	C221.775818,579.949097 213.668793,579.255615 207.024689,582.804321 
	C200.931961,586.058411 198.181198,591.949524 199.382828,599.170471 
	C200.473343,605.723816 205.652618,610.797974 212.625549,611.469360 
	C225.118774,612.672180 235.838181,601.432739 228.956711,587.687256 
z"/>
<path fill="#000000" opacity="1.000000" stroke="none" 
	d="
M684.876343,797.237122 
	C670.321960,800.044250 656.907227,789.714111 654.847534,774.499268 
	C652.946960,760.459656 664.558167,749.028992 682.094238,747.969727 
	C679.921875,742.403015 676.166687,737.907043 673.010742,733.099609 
	C670.921143,729.916626 671.635071,728.296326 674.572388,726.272888 
	C677.706909,724.113647 679.354614,724.681641 681.322693,727.743286 
	C691.322327,743.299133 701.524658,758.724609 711.565247,774.254395 
	C712.838623,776.224060 715.806763,778.325378 712.057739,780.880249 
	C709.102295,782.894226 706.275574,784.953918 703.756714,779.324341 
	C700.474915,789.173218 694.229187,794.657227 684.876343,797.237122 
M695.962219,770.384705 
	C695.531067,768.965210 695.283142,767.455933 694.638672,766.141052 
	C690.709412,758.124695 682.423828,754.487183 674.834961,757.351868 
	C667.081421,760.278687 663.157104,767.902283 665.360718,775.757141 
	C667.678528,784.019165 675.962463,789.923096 683.174866,788.453247 
	C691.468201,786.763123 697.009766,779.383179 695.962219,770.384705 
z"/>
<path fill="#000000" opacity="1.000000" stroke="none" 
	d="
M823.812439,404.039978 
	C833.266479,412.301971 836.543091,421.960907 831.808777,434.341797 
	C838.209290,432.524963 844.106628,430.938843 849.945129,429.159363 
	C853.235779,428.156372 855.436218,428.000458 856.590332,432.286957 
	C857.659790,436.259308 856.461914,437.571899 852.845459,438.584991 
	C834.749939,443.654175 816.720337,448.958496 798.643677,454.095917 
	C796.309021,454.759430 793.435791,456.707916 792.066589,452.586548 
	C791.001160,449.379517 790.116272,446.274567 795.802002,445.202301 
	C787.997742,439.291138 784.168274,432.088196 784.383362,423.039276 
	C784.513977,417.541901 786.225220,412.594910 789.967163,408.446533 
	C798.703430,398.761353 812.189148,396.897797 823.812439,404.039978 
M797.031311,435.393860 
	C798.010559,436.286926 798.906128,437.299774 799.983276,438.052765 
	C805.276733,441.753296 812.586609,441.492340 818.723755,437.464691 
	C823.860901,434.093292 826.559265,428.055664 825.431885,422.455048 
	C824.038269,415.531952 819.429749,410.591217 812.502014,409.692566 
	C806.065918,408.857697 800.185486,410.783173 796.240845,416.228088 
	C791.804199,422.352081 792.616882,428.689728 797.031311,435.393860 
z"/>
<path fill="#000000" opacity="1.000000" stroke="none" 
	d="
M357.865234,273.335785 
	C354.254425,274.982086 350.619446,273.911346 346.954254,274.796082 
	C348.622864,279.793457 351.819092,283.452911 354.306061,287.488251 
	C358.660309,294.553406 358.651459,294.771210 349.926910,298.530212 
	C346.778320,293.669739 343.532013,288.711884 340.339569,283.719574 
	C332.994843,272.234009 325.596832,260.780884 318.421631,249.190079 
	C317.151794,247.138824 313.631622,244.979416 317.008118,241.975204 
	C319.804779,239.486877 322.850525,238.042389 325.926086,242.379929 
	C328.833496,234.818222 333.508392,229.692154 340.534607,226.891006 
	C352.959808,221.937408 365.447662,227.116165 371.690887,239.803909 
	C377.470551,251.549744 373.846588,264.192474 362.706818,270.990967 
	C361.295593,271.852203 359.745880,272.486450 357.865234,273.335785 
M355.262726,236.061951 
	C347.719330,232.914383 340.980743,234.561844 336.132629,240.738907 
	C331.963318,246.051056 332.168030,253.635071 336.645996,259.753967 
	C341.136475,265.889954 348.000488,268.155670 354.668457,265.424164 
	C360.105286,263.196991 363.940430,259.248688 364.524261,253.241302 
	C365.230164,245.977829 362.055756,240.359283 355.262726,236.061951 
z"/>
<path fill="#000000" opacity="1.000000" stroke="none" 
	d="
M763.155334,689.200562 
	C769.146057,679.410583 774.935852,669.922791 780.945801,660.074280 
	C776.467407,657.245117 772.521545,658.024048 768.878479,660.128723 
	C762.437805,663.849487 759.173401,669.761963 759.400391,677.097717 
	C759.523132,681.068237 758.300598,682.495056 754.489746,682.562561 
	C750.179382,682.638733 750.786743,679.530212 750.702942,677.024719 
	C750.270691,664.104553 759.903931,651.583069 772.011719,649.178345 
	C783.119568,646.972229 795.997009,654.330688 800.123962,665.242249 
	C803.627319,674.505005 800.558655,686.149597 792.944031,692.487366 
	C784.715515,699.336304 774.264221,700.089844 765.065796,694.491455 
	C763.172241,693.338928 761.065979,692.262268 763.155334,689.200562 
M784.743469,687.552429 
	C794.579285,681.248291 796.009705,669.078308 787.094421,664.016968 
	C782.425659,671.840454 777.755798,679.665771 772.877319,687.840576 
	C777.333984,689.328003 780.685547,689.228943 784.743469,687.552429 
z"/>
<path fill="#000000" opacity="1.000000" stroke="none" 
	d="
M610.286865,808.484253 
	C608.102661,804.769287 609.608154,803.157959 612.867188,801.868347 
	C621.384155,798.498169 629.810791,794.898926 638.258728,791.355652 
	C639.905945,790.664795 641.762146,790.297974 643.325745,788.502441 
	C639.971741,783.540222 635.318054,781.642578 629.663513,782.246582 
	C623.629639,782.891052 618.245911,785.102539 615.271790,790.816223 
	C613.702026,793.831848 612.035950,793.919495 609.311584,792.466064 
	C606.290833,790.854553 606.416077,788.902771 607.781738,786.301331 
	C611.992737,778.280090 624.223877,772.175232 634.208008,773.203430 
	C644.328186,774.245667 652.201477,780.841064 655.103455,790.707581 
	C658.906494,803.637573 653.618835,815.295715 641.646790,820.376160 
	C629.136719,825.684937 617.856445,821.503052 610.286865,808.484253 
M622.641357,810.199219 
	C628.936096,814.749939 635.358765,815.085327 641.029114,811.159363 
	C646.163513,807.604614 647.831726,802.972351 645.969238,796.527161 
	C637.768982,799.094604 630.016724,802.726440 622.200623,806.168457 
	C619.997864,807.138489 621.176147,808.520142 622.641357,810.199219 
z"/>
<path fill="#000000" opacity="1.000000" stroke="none" 
	d="
M236.713745,434.774353 
	C239.026901,451.262848 229.909164,464.513123 215.062103,466.837677 
	C206.371719,468.198273 195.440323,463.012787 190.612091,455.239441 
	C185.678314,447.296143 186.099823,434.952087 191.985687,427.442749 
	C198.211395,419.499878 206.546814,416.828979 216.417221,418.732208 
	C219.453430,419.317627 220.475067,420.640778 219.660309,423.954834 
	C217.006363,434.749786 214.702103,445.630707 212.258911,456.498047 
	C218.101364,457.481415 223.519897,454.597382 226.195465,449.047363 
	C228.491928,444.283783 229.746506,439.194885 227.629700,434.082855 
	C226.135254,430.473846 226.338150,428.058868 230.397247,426.768494 
	C234.774002,425.377228 234.728348,429.185303 235.903625,431.465698 
	C236.345047,432.322205 236.367813,433.394440 236.713745,434.774353 
M210.627853,429.702148 
	C210.567505,427.156982 208.880112,427.201416 207.142120,427.641876 
	C201.584763,429.050293 197.746475,432.260742 196.205460,438.004395 
	C194.635452,443.856232 195.926117,448.828033 200.423203,452.887085 
	C202.996872,455.210114 204.987030,455.507660 205.868820,451.302856 
	C207.330261,444.334137 208.987976,437.406525 210.627853,429.702148 
z"/>
<path fill="#000000" opacity="1.000000" stroke="none" 
	d="
M835.571411,592.355469 
	C829.366455,601.365662 820.844177,603.657410 810.871765,602.362000 
	C807.480774,601.921448 806.479675,600.464844 807.327087,596.936157 
	C809.461853,588.047424 811.155151,579.053284 813.083191,570.113892 
	C813.470154,568.319641 813.973511,566.568604 813.548645,564.450867 
	C810.230225,563.435242 807.475586,564.693359 804.951843,566.678040 
	C798.966492,571.384949 796.431396,580.241150 799.405090,587.944824 
	C800.761230,591.458191 799.984680,593.046265 796.764160,594.458679 
	C793.097900,596.066711 792.238159,593.363464 791.428894,591.135376 
	C787.730408,580.952637 789.328979,571.328918 795.859375,562.888306 
	C801.957703,555.006226 810.429321,552.740479 820.024536,554.941895 
	C829.528992,557.122437 836.262329,562.559265 838.697327,572.299072 
	C840.422241,579.199036 839.328796,585.841980 835.571411,592.355469 
M822.716858,592.396179 
	C829.335571,588.445618 832.101929,582.911621 830.692017,575.712830 
	C829.748291,570.894226 827.115051,567.370178 821.702148,565.883728 
	C819.398621,575.166077 817.251953,584.025940 816.207458,592.933167 
	C818.890198,593.905884 820.407227,592.934998 822.716858,592.396179 
z"/>
<path fill="#000000" opacity="1.000000" stroke="none" 
	d="
M736.445557,311.671356 
	C748.425842,295.095825 768.442749,294.739624 778.622925,310.601074 
	C785.214417,320.871094 783.164490,333.833984 773.876831,341.747711 
	C771.020508,344.181488 769.079773,344.426819 766.632874,341.071381 
	C761.137695,333.536041 755.306458,326.244629 749.556519,318.897339 
	C748.572510,317.639893 747.863770,315.962738 745.987976,315.697540 
	C738.362976,321.330902 742.799133,337.596619 754.785400,341.493774 
	C757.073975,342.237854 759.275879,342.561584 758.717651,346.007172 
	C758.002991,350.418793 755.739502,350.811371 751.981689,349.728577 
	C739.655029,346.176666 726.965088,327.295166 736.445557,311.671356 
M767.311523,329.913666 
	C768.659363,331.795197 769.915466,332.958191 771.778015,330.262390 
	C775.189026,325.325439 774.256714,317.427155 769.487549,312.405457 
	C764.901611,307.576660 758.438477,306.707123 752.506775,310.497589 
	C757.321899,316.815216 762.113708,323.102173 767.311523,329.913666 
z"/>
<path fill="#000000" opacity="1.000000" stroke="none" 
	d="
M379.568298,242.363312 
	C366.722290,224.403137 374.205688,204.784225 394.924713,201.201965 
	C404.946655,199.469208 416.537292,206.705780 419.792999,216.459244 
	C420.958160,219.949860 418.883789,220.943466 416.475586,221.932495 
	C408.163544,225.346161 399.834412,228.718140 391.516357,232.117142 
	C389.844116,232.800461 387.991852,233.178970 386.812561,234.734833 
	C389.304108,240.265045 395.568512,242.997910 402.212585,241.233810 
	C407.142853,239.924744 411.724457,237.750015 414.263733,233.036469 
	C416.113831,229.602264 418.190948,230.382004 420.797241,231.803207 
	C424.259216,233.691010 422.622620,235.818085 421.271454,237.967789 
	C412.795776,251.452469 390.393677,255.470810 379.568298,242.363312 
M398.209900,209.487762 
	C387.069824,210.302719 380.054230,218.373474 383.682190,226.877396 
	C392.342041,224.015686 400.815247,220.663940 409.251251,216.675690 
	C406.879486,212.024048 403.053558,210.634659 398.209900,209.487762 
z"/>
<path fill="#000000" opacity="1.000000" stroke="none" 
	d="
M277.370392,686.727234 
	C274.673065,683.115601 271.385803,680.825928 267.473389,679.710388 
	C264.075134,678.741455 264.763275,676.654236 265.287079,674.279846 
	C265.888702,671.552612 267.316101,670.974915 269.996063,671.538330 
	C280.978424,673.847168 291.216278,688.113403 290.170593,699.908325 
	C289.076904,712.244690 277.051422,723.125977 264.676453,722.976807 
	C252.854706,722.834290 241.893814,712.558899 240.826675,700.161255 
	C240.066971,691.334717 244.010788,684.413147 250.706741,678.889282 
	C253.134979,676.886047 254.780380,677.718933 256.452362,680.005615 
	C261.756622,687.259888 267.145538,694.453064 272.576935,701.612793 
	C273.852509,703.294189 274.832428,705.317139 276.890320,706.274780 
	C282.184052,701.822632 282.410797,695.007935 277.370392,686.727234 
M262.348785,700.112854 
	C259.397034,696.671143 257.460297,692.325928 253.644379,689.609863 
	C247.809143,695.556396 248.041138,703.414978 253.879333,709.364380 
	C258.800476,714.379272 265.664825,715.190369 270.433228,710.943359 
	C267.903015,707.554565 265.339233,704.120728 262.348785,700.112854 
z"/>
<path fill="#000000" opacity="1.000000" stroke="none" 
	d="
M230.966888,334.119202 
	C239.100891,323.386627 250.512619,320.549255 261.603088,326.248505 
	C266.776276,328.906921 266.973480,329.622925 263.916870,334.479279 
	C259.046539,342.217255 254.169571,349.951141 249.331528,357.709290 
	C248.568954,358.932129 247.996414,360.273468 247.260941,361.706268 
	C252.048416,364.911255 256.282867,363.366058 260.071625,360.908691 
	C265.875549,357.144348 269.228485,351.651093 268.752197,344.557861 
	C268.463135,340.253265 270.907867,339.396881 274.160645,339.270355 
	C277.809814,339.128418 277.249481,342.037903 277.347839,344.248749 
	C277.907349,356.829254 268.670227,369.458405 256.946106,372.228729 
	C245.851761,374.850250 233.236084,368.357880 228.419769,357.206451 
	C225.002090,349.293365 226.049118,341.614899 230.966888,334.119202 
M239.658707,357.012238 
	C246.823135,350.658508 249.920532,341.650879 255.393311,334.091553 
	C248.751114,330.898285 242.584778,332.566345 238.304916,338.269226 
	C233.717499,344.381866 234.001663,350.841949 239.658707,357.012238 
z"/>
<path fill="#000000" opacity="1.000000" stroke="none" 
	d="
M536.387878,179.533386 
	C536.856018,175.955902 537.536194,172.820831 537.551758,169.682495 
	C537.573425,165.306992 539.625610,164.297943 543.565735,164.862976 
	C555.244873,166.537857 566.939697,168.113297 578.648376,169.566803 
	C581.669189,169.941788 583.213928,170.845444 582.749756,174.265228 
	C582.311646,177.493683 581.194763,179.024292 577.623108,178.496124 
	C569.393005,177.279160 561.117981,176.370132 552.872681,175.250992 
	C548.648865,174.677673 546.252502,175.770218 546.154175,180.644394 
	C546.064636,185.085205 545.210754,189.510605 544.654785,194.276871 
	C551.702637,196.419189 558.720276,196.463531 565.529053,197.663315 
	C567.328308,197.980362 569.140686,198.352554 570.956848,198.415192 
	C574.363464,198.532684 575.619446,200.082672 575.275024,203.495117 
	C574.893372,207.276871 572.520203,207.635254 569.618652,207.260956 
	C563.027283,206.410675 556.438416,205.534119 549.863770,204.564682 
	C544.092896,203.713760 543.247742,204.239349 542.472473,210.079208 
	C541.903259,214.367294 541.507690,218.678207 541.011475,222.976288 
	C540.597412,226.562836 539.852173,229.011673 534.930298,228.504776 
	C529.867004,227.983307 530.373413,225.110565 530.767212,221.955688 
	C532.145142,210.916718 533.647461,199.893250 535.106262,188.864380 
	C535.498352,185.900101 535.903992,182.937637 536.387878,179.533386 
z"/>
<path fill="#000000" opacity="1.000000" stroke="none" 
	d="
M474.264252,829.336304 
	C466.479401,828.245361 459.077698,827.213196 451.683563,826.129333 
	C448.438568,825.653687 446.019653,824.678650 446.887878,820.405334 
	C447.737854,816.221863 450.278717,816.771606 453.261749,817.260803 
	C460.308228,818.416443 467.402710,819.287292 474.435364,820.516235 
	C478.206757,821.175232 479.123016,819.040283 479.536865,816.130005 
	C480.284943,810.869202 481.059357,805.609985 481.669769,800.332458 
	C482.017700,797.324402 483.066315,795.742493 486.482056,796.413452 
	C489.350342,796.976990 492.101074,796.883179 491.470337,801.286743 
	C488.831543,819.709900 486.424255,838.166138 483.895630,856.605225 
	C483.559357,859.057312 482.423309,860.460632 479.526245,860.023804 
	C467.535767,858.215881 455.529205,856.511108 443.516724,854.854187 
	C440.325684,854.414062 438.123596,853.589966 438.870880,849.573303 
	C439.598999,845.659851 441.833099,845.597717 445.054688,846.118164 
	C453.262024,847.443909 461.528961,848.397034 469.747894,849.656799 
	C473.023285,850.158875 474.784454,849.247070 475.148560,845.757874 
	C475.595917,841.470520 476.258636,837.202637 476.934998,832.943298 
	C477.248596,830.968628 476.839905,829.652161 474.264252,829.336304 
z"/>
<path fill="#000000" opacity="1.000000" stroke="none" 
	d="
M705.942383,722.110718 
	C718.565430,706.347290 736.537170,705.691711 747.620911,720.283081 
	C754.974976,729.964478 754.054688,742.859680 745.339417,752.253540 
	C736.881104,761.370239 723.990112,763.275940 714.028809,756.882141 
	C703.254395,749.966553 699.079285,737.240479 703.916382,725.971924 
	C704.439941,724.752136 705.133911,723.605530 705.942383,722.110718 
M720.363281,720.645996 
	C718.048950,721.718079 716.175171,723.356384 714.566711,725.292908 
	C710.511169,730.175415 710.148987,737.055298 713.615356,742.506531 
	C717.615173,748.796692 724.648804,752.410400 730.296448,751.076904 
	C739.421631,748.922180 744.739319,740.617126 742.562805,731.919434 
	C740.245911,722.660400 730.637634,717.491150 720.363281,720.645996 
z"/>
<path fill="#000000" opacity="1.000000" stroke="none" 
	d="
M617.756714,241.979370 
	C612.394531,231.160492 615.123413,221.840622 622.170044,213.482132 
	C628.164551,206.371735 638.627991,204.103622 647.790710,207.341156 
	C658.733826,211.207779 665.476074,219.535477 666.103088,229.959625 
	C666.685181,239.638718 659.398315,250.790359 650.122192,254.416351 
	C640.150635,258.314178 627.573914,254.793152 620.412415,246.046768 
	C619.470398,244.896347 618.745056,243.568558 617.756714,241.979370 
M646.914856,216.312149 
	C637.086853,213.117401 629.459900,216.564682 625.984192,225.772522 
	C622.933105,233.855453 626.125305,242.110916 633.618164,245.515121 
	C641.474243,249.084351 649.981689,246.097061 653.970032,238.368622 
	C658.361145,229.859863 655.933167,221.527237 646.914856,216.312149 
z"/>
<path fill="#000000" opacity="1.000000" stroke="none" 
	d="
M359.617310,779.799683 
	C365.973511,770.030334 374.598877,765.822937 385.797241,767.896606 
	C396.893646,769.951416 404.635803,777.834717 406.764771,788.677368 
	C410.121063,805.770691 392.966492,821.187744 375.843109,816.591003 
	C362.183685,812.924133 350.042511,797.807739 359.617310,779.799683 
M367.297363,799.878906 
	C368.365814,802.000305 369.975800,803.676819 371.808319,805.120239 
	C378.944702,810.741394 388.656403,809.376648 393.695068,802.084778 
	C399.427521,793.788879 397.934967,783.401855 390.357269,778.855225 
	C381.865448,773.760254 372.513306,776.429810 368.023071,785.190430 
	C365.703583,789.715820 365.433075,794.363159 367.297363,799.878906 
z"/>
<path fill="#000000" opacity="1.000000" stroke="none" 
	d="
M281.391663,302.481140 
	C271.298767,288.655823 277.010651,274.237671 286.866608,266.908936 
	C298.155975,258.514343 311.910431,260.373779 321.128601,271.447205 
	C329.348022,281.320892 328.073395,296.359863 318.260712,305.283417 
	C307.972412,314.639465 293.639618,314.681335 283.957642,305.363892 
	C283.120331,304.558105 282.396881,303.634033 281.391663,302.481140 
M293.603119,272.858185 
	C285.379944,278.744904 283.269836,286.060974 287.520599,293.946869 
	C291.510956,301.349609 300.233063,304.788666 307.488190,301.819946 
	C315.583679,298.507355 319.344421,290.110931 316.279572,282.191742 
	C312.757324,273.090668 303.680756,269.086060 293.603119,272.858185 
z"/>
<path fill="#000000" opacity="1.000000" stroke="none" 
	d="
M226.604675,679.890503 
	C221.069199,678.229919 219.937012,673.921387 224.043518,670.138428 
	C219.279434,667.251770 215.337189,663.655884 212.727951,658.697205 
	C206.939514,647.696594 209.698196,637.516724 220.599533,631.579529 
	C228.191345,627.444946 236.082962,623.864319 243.750107,619.862732 
	C246.901596,618.217896 248.184692,619.654846 249.443939,622.278198 
	C250.701019,624.897156 251.740997,627.053101 248.109024,628.744995 
	C241.326172,631.904724 234.616989,635.230408 227.952759,638.635071 
	C219.747559,642.827087 217.537491,648.047791 220.780228,655.072632 
	C224.543579,663.225403 231.654663,666.174805 239.707870,662.530334 
	C246.218536,659.583923 252.574234,656.280334 258.903015,652.953247 
	C261.848938,651.404480 263.805664,651.037659 265.644836,654.668884 
	C267.493408,658.318542 267.022278,660.217529 263.266815,662.000366 
	C251.099548,667.776733 239.057007,673.815857 226.604675,679.890503 
z"/>
<path fill="#000000" opacity="1.000000" stroke="none" 
	d="
M315.681335,745.717163 
	C318.204559,742.166260 320.511383,738.900879 322.866455,735.670654 
	C327.634033,729.131531 328.438080,729.127747 334.585358,735.946838 
	C329.692902,742.856445 324.721863,749.888367 319.737305,756.910645 
	C317.988068,759.374939 316.415558,761.885986 316.275787,765.051086 
	C316.049805,770.170959 319.048950,774.452698 324.638458,776.857788 
	C330.090363,779.203674 335.928802,778.424011 339.713135,773.891235 
	C344.719452,767.894592 349.327423,761.538940 353.754303,755.095581 
	C356.213379,751.516235 358.222687,751.610596 361.337677,754.193848 
	C363.808197,756.242554 364.079163,757.785278 362.165863,760.376160 
	C354.448761,770.826233 346.901398,781.401733 339.290314,791.930176 
	C337.802856,793.987732 336.441193,796.350098 333.349060,794.131226 
	C330.681915,792.217224 327.351501,790.538391 331.987823,786.365051 
	C325.025909,786.242554 319.454193,784.574463 314.510376,780.928162 
	C305.440399,774.238647 303.416626,764.142822 309.453613,754.600525 
	C311.320984,751.648987 313.467896,748.874268 315.681335,745.717163 
z"/>
<path fill="#000000" opacity="1.000000" stroke="none" 
	d="
M763.321411,358.243347 
	C773.717285,352.896698 783.771790,347.694427 793.869324,342.577057 
	C796.113403,341.439789 798.543945,339.295013 800.623962,342.999023 
	C802.281616,345.950867 804.119141,348.818481 798.465210,350.839264 
	C806.396545,354.426727 810.931763,360.049347 813.226440,367.506226 
	C815.600098,375.219971 813.363464,382.582123 806.663818,387.375885 
	C798.365112,393.313812 788.817444,397.013855 779.795410,401.651123 
	C776.329163,403.432739 775.603638,400.361816 774.421082,398.261261 
	C773.222778,396.132874 772.866943,394.316315 775.619202,392.936096 
	C782.613220,389.428650 789.571472,385.845917 796.478455,382.170105 
	C804.096558,378.115814 806.080566,373.222900 803.088257,366.362885 
	C799.773560,358.763885 793.049255,355.297577 785.672607,358.278534 
	C778.751404,361.075439 772.145874,364.687073 765.519104,368.164337 
	C762.406555,369.797577 760.229980,370.908447 757.986145,366.657318 
	C755.642700,362.217499 757.694641,360.691406 761.209900,359.313171 
	C761.827148,359.071136 762.401428,358.719421 763.321411,358.243347 
z"/>
<path fill="#000000" opacity="1.000000" stroke="none" 
	d="
M679.886719,251.855637 
	C675.944763,257.450745 672.129395,262.704895 668.532166,268.104370 
	C666.705872,270.845551 665.024292,271.622467 662.077087,269.483276 
	C659.152283,267.360291 658.104126,265.651459 660.576416,262.250763 
	C668.305908,251.618805 675.756836,240.783401 683.245056,229.977814 
	C684.655457,227.942535 686.063538,226.532898 688.458313,228.414230 
	C690.341980,229.894058 693.972351,230.504684 691.719849,234.310974 
	C691.382080,234.881714 691.018250,235.464813 691.801575,236.647705 
	C697.159363,235.942535 702.197388,237.855194 706.903809,240.866699 
	C716.487366,246.998978 719.274048,257.618408 713.263062,267.260437 
	C708.427551,275.016876 702.880554,282.327026 697.755127,289.906830 
	C695.619873,293.064606 693.692810,291.543671 691.527527,290.059509 
	C689.269836,288.511993 687.571899,287.113373 689.788208,284.112061 
	C693.938904,278.491272 697.921936,272.743164 701.859741,266.969574 
	C707.847656,258.189850 707.463867,252.140335 700.763794,247.438873 
	C693.242981,242.161469 686.300293,243.551300 679.886719,251.855637 
z"/>
<path fill="#000000" opacity="1.000000" stroke="none" 
	d="
M804.030579,651.970764 
	C795.370361,643.189392 787.014648,634.604797 778.515198,626.165039 
	C776.194214,623.860413 775.625488,621.749207 776.978027,618.650208 
	C778.307129,615.604980 779.807434,613.795410 783.485901,613.712036 
	C798.112061,613.380493 812.731689,612.765381 827.354675,612.281494 
	C828.994202,612.227234 831.421753,612.106567 830.965271,614.390442 
	C830.383484,617.301270 829.965210,620.858826 826.206299,621.875427 
	C824.949280,622.215332 823.564575,622.139282 822.237183,622.153687 
	C813.752625,622.245728 805.267456,622.290649 796.783020,622.395569 
	C794.320923,622.425964 791.795593,622.203003 788.893188,623.859802 
	C794.576294,629.678772 800.095215,635.344055 805.632080,640.991760 
	C807.844910,643.248901 810.101379,645.463135 812.330811,647.703979 
	C816.912292,652.308716 816.917297,653.902710 812.237305,659.474609 
	C808.876404,657.863708 807.023560,654.533875 804.030579,651.970764 
z"/>
<path fill="#000000" opacity="1.000000" stroke="none" 
	d="
M234.454636,380.546936 
	C239.676437,385.941254 244.718460,391.021484 249.610168,396.242554 
	C252.624832,399.460114 250.397324,406.914734 246.098694,407.287048 
	C229.840866,408.695099 213.535583,408.476654 197.237839,407.991119 
	C196.981583,407.983490 196.736282,407.608276 196.488281,407.401642 
	C197.291885,400.215424 198.602127,398.894165 205.173111,398.842529 
	C214.658524,398.767944 224.144379,398.751648 233.629837,398.681244 
	C235.228424,398.669373 236.825943,398.510101 239.200562,398.374664 
	C230.887939,389.643158 223.125610,381.485992 215.358917,373.332947 
	C210.972183,368.728027 210.972839,367.449127 215.749588,361.640747 
	C222.582870,367.199707 227.992798,374.163666 234.454636,380.546936 
z"/>
<path fill="#000000" opacity="1.000000" stroke="none" 
	d="
M716.607117,287.624573 
	C721.540283,282.225250 726.907043,277.696472 730.900757,272.145538 
	C730.350952,269.068329 724.601013,268.096100 728.407227,263.670258 
	C732.580688,258.817383 734.561890,264.422424 737.746277,265.261871 
	C738.822571,264.296875 740.110535,263.454285 740.985535,262.298889 
	C743.586365,258.864807 745.882629,259.315002 748.662109,262.213928 
	C750.632690,264.269257 751.318909,265.790192 748.950134,267.970612 
	C743.747070,272.760040 744.194092,272.734192 750.094177,278.299500 
	C752.724121,280.780304 754.451599,282.866241 750.885742,285.946747 
	C749.136292,287.457977 747.819580,287.582031 746.189026,285.960175 
	C743.964172,283.747253 741.649048,281.625153 739.004700,279.114868 
	C732.139587,285.322723 725.619019,291.439270 720.153687,298.509644 
	C717.811646,301.539520 718.905029,304.922424 721.914490,307.323944 
	C723.451843,308.550751 725.212341,309.497833 726.820557,310.538055 
	C725.875244,317.587341 723.945557,318.694214 718.265686,314.960571 
	C709.610046,309.270813 703.426758,299.680511 716.607117,287.624573 
z"/>
<path fill="#000000" opacity="1.000000" stroke="none" 
	d="
M276.113403,761.737793 
	C274.612000,759.466736 270.599548,758.623291 272.657104,755.189514 
	C273.904724,753.107483 275.882935,751.463196 277.514526,749.642761 
	C276.289978,746.422241 273.613251,744.853027 271.471649,742.847290 
	C269.418152,740.924194 268.798157,739.225525 271.156006,737.036865 
	C273.069458,735.260803 274.573914,734.312561 277.069275,736.420166 
	C284.624786,742.801697 284.706177,742.713196 291.608978,735.791687 
	C294.427551,732.965576 297.261902,730.153870 300.027863,727.276794 
	C305.845337,721.225647 305.357086,717.304504 298.317657,712.984070 
	C297.626984,712.560120 296.969727,712.081665 296.376495,711.682129 
	C297.769409,704.645325 299.185425,703.963989 304.749146,707.269958 
	C312.918365,712.124207 318.815063,723.025757 308.051422,732.949219 
	C302.316223,738.236633 296.819733,743.783020 291.608429,748.831787 
	C291.727051,753.068726 299.114929,754.953064 293.358490,759.541748 
	C288.852753,763.133423 288.046936,757.141418 285.121307,756.967529 
	C281.717133,757.763062 281.225983,763.661987 276.113403,761.737793 
z"/>
<path fill="#000000" opacity="1.000000" stroke="none" 
	d="
M750.480835,708.534302 
	C745.391907,704.466919 740.664673,700.513672 735.747009,696.813599 
	C732.912048,694.680481 732.924194,692.869690 735.184937,690.291260 
	C737.260620,687.923950 738.715698,686.299072 741.999268,688.985229 
	C757.195190,701.416504 772.524719,713.686890 787.942444,725.842407 
	C790.839722,728.126648 790.585205,729.782898 788.485657,732.304993 
	C786.356384,734.862854 784.618591,735.931885 781.541260,733.405762 
	C771.382324,725.066162 761.036743,716.954041 750.480835,708.534302 
z"/>
<path fill="#000000" opacity="1.000000" stroke="none" 
	d="
M255.233398,294.741516 
	C267.739777,304.968079 279.918671,315.034821 292.232788,324.933350 
	C294.964203,327.128967 295.826508,328.788391 293.123383,331.714508 
	C290.736694,334.298157 289.119263,335.373108 285.852234,332.622009 
	C271.096375,320.196259 256.149017,307.996185 241.171432,295.837067 
	C238.350647,293.547119 238.026459,291.765686 240.429749,288.890839 
	C242.715500,286.156677 244.558350,285.444489 247.331909,288.085205 
	C249.736038,290.374146 252.403534,292.386475 255.233398,294.741516 
z"/>
<path fill="#000000" opacity="1.000000" stroke="none" 
	d="
M595.687256,792.463806 
	C598.714783,804.445374 601.596802,816.049988 604.548035,827.636902 
	C605.229126,830.310974 606.204895,832.845764 602.339172,833.986755 
	C598.815430,835.026917 595.974854,835.102112 595.490173,829.355530 
	C592.267517,834.091736 588.790588,837.008057 584.276978,838.526917 
	C582.253540,839.207825 580.268799,839.837219 579.541504,836.955383 
	C578.938538,834.566528 576.980713,832.027405 580.638855,830.119568 
	C591.358704,824.528931 592.799988,821.200989 589.917542,809.408936 
	C588.266968,802.656372 586.568298,795.915588 584.919922,789.284668 
	C591.848267,784.727905 594.038452,785.359680 595.687256,792.463806 
z"/>
<path fill="#000000" opacity="1.000000" stroke="none" 
	d="
M593.927246,223.813599 
	C592.993408,227.072342 592.187012,229.948334 591.363281,232.819382 
	C589.939331,237.782684 586.530884,238.904480 582.252441,235.969482 
	C580.061523,234.466522 581.218140,232.735031 581.679260,231.086441 
	C585.075745,218.942825 588.471008,206.798279 591.998474,194.692444 
	C592.713135,192.239975 592.554504,188.672073 597.122070,189.754166 
	C600.873291,190.642868 603.380432,191.984985 601.031067,197.201324 
	C606.180298,194.458267 610.734070,194.135864 615.388672,194.774567 
	C617.576050,195.074707 619.501587,195.904266 618.545471,198.608551 
	C617.756714,200.839386 618.363098,204.304916 614.188416,204.033981 
	C602.515991,203.276489 599.232666,205.609482 595.983948,216.729065 
	C595.331970,218.960403 594.692322,221.195358 593.927246,223.813599 
z"/>
<path fill="#000000" opacity="1.000000" stroke="none" 
	d="
M438.825165,798.661926 
	C435.686646,809.255737 432.718384,819.479858 429.683624,829.684143 
	C428.905090,832.301880 428.697144,835.575623 424.310699,834.320129 
	C420.725037,833.293823 418.450470,831.761780 420.706451,826.994629 
	C414.369751,829.333435 408.688812,830.679321 403.046814,827.683472 
	C404.085205,819.922974 404.085205,819.922913 411.320831,820.565430 
	C416.324646,821.009766 421.535614,817.897095 424.084412,812.635986 
	C427.297089,806.004639 428.462341,798.690186 430.700958,791.729980 
	C431.834991,788.204163 432.588715,785.731201 437.420898,787.210571 
	C442.234375,788.684143 441.100067,791.359497 440.124451,794.463379 
	C439.725494,795.732727 439.354431,797.010742 438.825165,798.661926 
z"/>
<path fill="#000000" opacity="1.000000" stroke="none" 
	d="
M436.879639,191.558350 
	C439.074921,188.985901 441.502777,187.248123 444.339020,186.159103 
	C446.690643,185.256149 449.349518,183.258423 450.679047,187.549927 
	C451.708069,190.871353 452.159851,193.281509 447.595123,194.676239 
	C440.264374,196.916092 437.053497,203.318649 438.777069,210.829620 
	C440.372253,217.781006 442.063202,224.714218 443.909485,231.602509 
	C444.764984,234.794403 443.635529,236.332550 440.595703,236.886353 
	C438.013031,237.356888 435.417175,238.508453 434.466064,234.352707 
	C431.426575,221.072281 428.162415,207.843140 424.958130,194.600708 
	C424.390533,192.255020 425.024200,190.624146 427.494812,190.115662 
	C429.772247,189.646942 432.411804,187.923401 433.756866,191.613190 
	C434.015625,192.322968 433.978546,193.303314 435.232544,193.630066 
	C435.677277,193.066238 436.173706,192.436859 436.879639,191.558350 
z"/>
<path fill="#000000" opacity="1.000000" stroke="none" 
	d="
M498.532501,224.274200 
	C496.443909,228.338547 493.617218,230.255432 489.529266,228.192001 
	C486.379333,226.602066 485.053833,223.699524 486.189728,220.286179 
	C487.306732,216.929550 489.950775,215.132538 493.505157,215.851013 
	C497.767181,216.712524 499.387787,219.660324 498.532501,224.274200 
z"/>
<path fill="#000000" opacity="1.000000" stroke="none" 
	d="
M536.987671,795.817993 
	C542.752014,797.458435 545.120239,801.216797 543.103638,805.147888 
	C541.720947,807.843140 539.468506,809.578857 536.280579,809.012512 
	C532.930786,808.417236 530.986694,806.030334 530.909180,802.767639 
	C530.822144,799.102051 532.649353,796.467590 536.987671,795.817993 
z"/>
</svg>